# xmcd CD database file generated by OrangeCD 6.3
#
# Track frame offsets:
#	150
#	15237
#	29971
#	47098
#	59564
#	63693
#	74128
#	82475
#	88094
#	100212
#	115539
#	124037
#	131591
#	140911
#	152359
#	167210
#	184708
#	195900
#
# Disc length: 2848 seconds
#
# Revision: 4
# Processed by: cddbd v1.5.2PL0 Copyright (c) Steve Scherf et al.
# Submitted via: OrangeCD 6.3
#
DISCID=0b0b1e12
DTITLE=Аквариум - Акустика
DYEAR=1982
DGENRE=Rock
TTITLE0=Держаться Корней
TTITLE1=С той стороны зеркального стекла
TTITLE2=Сталь
TTITLE3=25 к 10
TTITLE4=К друзьям
TTITLE5=10 стрел
TTITLE6=Почему не падает небо
TTITLE7=Граф Гарсиа
TTITLE8=Нам всем будет лучше
TTITLE9=Иванов
TTITLE10=2-е стеклянное чудо
TTITLE11=Моей звезде
TTITLE12=Укравший дождь
TTITLE13=Песня для нового быта
TTITLE14=Глядя в телевизор [бонус трек]
TTITLE15=Сонет [бонус трек]
TTITLE16=Золотых лошадей [бонус трек]
TTITLE17=Контраданс [бонус трек]
EXTD=
EXTT0=
EXTT1=
EXTT2=
EXTT3=
EXTT4=
EXTT5=
EXTT6=
EXTT7=
EXTT8=
EXTT9=
EXTT10=
EXTT11=
EXTT12=
EXTT13=
EXTT14=
EXTT15=
EXTT16=
EXTT17=
PLAYORDER=
